<svg xmlns="http://www.w3.org/2000/svg" width="350" height="350" viewBox="0 0 350 350" fill="none"><path d="M277.823 71.6041C264.451 58.1014 248.525 47.3952 230.974 40.1093C213.423 32.8235 194.597 29.1036 175.594 29.1666C95.9687 29.1666 31.0729 94.0624 31.0729 173.687C31.0729 199.208 37.7813 224 50.3229 245.875L29.9062 320.833L106.469 300.708C127.615 312.229 151.385 318.354 175.594 318.354C255.219 318.354 320.115 253.458 320.115 173.833C320.115 135.187 305.094 98.8749 277.823 71.6041ZM175.594 293.854C154.01 293.854 132.865 288.021 114.344 277.083L109.969 274.458L64.4688 286.417L76.5729 242.083L73.6563 237.562C61.6622 218.415 55.2947 196.281 55.2812 173.687C55.2812 107.479 109.24 53.5207 175.448 53.5207C207.531 53.5207 237.719 66.0624 260.323 88.8124C271.517 99.9521 280.388 113.204 286.422 127.798C292.455 142.393 295.53 158.041 295.469 173.833C295.76 240.042 241.802 293.854 175.594 293.854ZM241.51 204.021C237.865 202.271 220.073 193.521 216.865 192.208C213.51 191.042 211.177 190.458 208.698 193.958C206.219 197.604 199.365 205.771 197.323 208.104C195.281 210.583 193.094 210.875 189.448 208.979C185.802 207.229 174.135 203.292 160.427 191.042C149.635 181.417 142.49 169.604 140.302 165.958C138.26 162.312 140.01 160.417 141.906 158.521C143.51 156.917 145.552 154.292 147.302 152.25C149.052 150.208 149.781 148.604 150.948 146.271C152.115 143.792 151.531 141.75 150.656 140C149.781 138.25 142.49 120.458 139.573 113.167C136.656 106.167 133.594 107.042 131.406 106.896H124.406C121.927 106.896 118.135 107.771 114.781 111.417C111.573 115.062 102.24 123.812 102.24 141.604C102.24 159.396 115.219 176.604 116.969 178.937C118.719 181.417 142.49 217.875 178.656 233.479C187.26 237.271 193.969 239.458 199.219 241.062C207.823 243.833 215.698 243.396 221.969 242.521C228.969 241.5 243.406 233.771 246.323 225.312C249.385 216.854 249.385 209.708 248.365 208.104C247.344 206.5 245.156 205.771 241.51 204.021Z" fill="white"></path></svg>